<?xml version="1.0" encoding="utf-8"?>
<!-- Generator: Adobe Illustrator 16.0.0, SVG Export Plug-In . SVG Version: 6.00 Build 0)  -->
<!DOCTYPE svg PUBLIC "-//W3C//DTD SVG 1.1//EN" "http://www.w3.org/Graphics/SVG/1.1/DTD/svg11.dtd">
<svg version="1.1" id="Layer_1" xmlns="http://www.w3.org/2000/svg" xmlns:xlink="http://www.w3.org/1999/xlink" x="0px" y="0px"
	 width="188px" height="138px" viewBox="0 0 188 138" style="enable-background:new 0 0 188 138;" xml:space="preserve">
<style type="text/css">
<![CDATA[
	.st0{fill:#FFFFFF;}
	.st1{fill:#353434;}
	.st2{fill:#3EA0C9;}
]]>
</style>
<path class="st0" d="M187.444,69c0,0-9.226,1.39-7.14,5.313c4.517,7.547,5.691,18.64,2.49,26.77
	c-1.766,4.485-4.44,8.982-7.641,12.582c-3.232,3.638-7.259,6.46-11.847,8.108c-2.511,0.902-5.319,1.733-7.977,2.046
	c-3.06,0.359-6.126,0.418-9.202,0.345c-2.661-0.063-5.328-0.14-7.989-0.005c-14.042,0.712-26.545,10.142-37.327,12.287
	c-2.265,0.449-4.562,0.689-6.987,0.689c-2.424,0-4.721-0.24-6.986-0.689c-10.783-2.146-23.285-11.575-37.327-12.287
	c-2.661-0.135-5.328-0.059-7.99,0.005c-3.076,0.073-6.143,0.015-9.202-0.345c-2.657-0.313-5.465-1.144-7.976-2.046
	c-4.589-1.648-8.613-4.471-11.847-8.108c-3.2-3.6-5.874-8.097-7.64-12.582c-3.201-8.13-2.028-19.223,2.49-26.77
	C9.434,70.39,0.208,69,0.208,69s9.226-1.39,7.14-5.312c-4.518-7.547-5.691-18.64-2.49-26.77c1.766-4.485,4.44-8.982,7.64-12.582
	c3.234-3.638,7.258-6.46,11.847-8.108c2.511-0.903,5.319-1.733,7.976-2.046c3.059-0.359,6.126-0.419,9.202-0.346
	c2.662,0.064,5.329,0.141,7.99,0.006C63.555,13.13,76.057,3.7,86.84,1.555c2.265-0.45,4.562-0.69,6.986-0.69
	c2.425,0,4.722,0.24,6.987,0.69C111.595,3.7,124.098,13.13,138.14,13.842c2.661,0.135,5.328,0.058,7.989-0.006
	c3.076-0.073,6.143-0.013,9.202,0.346c2.657,0.313,5.466,1.143,7.977,2.046c4.588,1.648,8.614,4.47,11.847,8.108
	c3.2,3.6,5.875,8.097,7.641,12.582c3.201,8.13,2.026,19.223-2.49,26.77C178.219,67.61,187.444,69,187.444,69"/>
<path class="st1" d="M93.13,8.126c0-0.405,0.325-0.73,0.73-0.73c0.404,0,0.73,0.329,0.73,0.73c-0.005,0.404-0.33,0.729-0.73,0.729
	C93.456,8.855,93.13,8.53,93.13,8.126 M90.219,8.346c-0.004-0.024-0.004-0.05-0.004-0.074c0-0.372,0.28-0.688,0.655-0.726
	c0.4-0.041,0.76,0.25,0.801,0.651c0.004,0.024,0.004,0.05,0.004,0.075c0,0.371-0.279,0.687-0.655,0.725
	c-0.024,0.004-0.049,0.004-0.075,0.004C90.574,9.001,90.257,8.722,90.219,8.346 M96.696,9.006c-0.376-0.042-0.654-0.359-0.654-0.73
	c0-0.025,0.004-0.046,0.004-0.071c0.042-0.405,0.4-0.692,0.805-0.651c0.376,0.038,0.655,0.354,0.651,0.726
	c0,0.025,0,0.05-0.004,0.075C97.46,8.729,97.143,9.01,96.771,9.01C96.747,9.01,96.722,9.01,96.696,9.006 M87.346,8.872
	c-0.009-0.05-0.013-0.1-0.013-0.15c-0.004-0.338,0.234-0.643,0.58-0.717h-0.004c0.396-0.084,0.784,0.171,0.868,0.562
	c0.008,0.051,0.016,0.101,0.016,0.151c0,0.337-0.238,0.642-0.58,0.717c-0.05,0.009-0.104,0.013-0.154,0.013
	C87.721,9.448,87.42,9.214,87.346,8.872 M99.504,9.448c-0.347-0.075-0.58-0.38-0.58-0.722c0-0.046,0.009-0.096,0.017-0.146
	c0.083-0.392,0.476-0.646,0.868-0.563c0.346,0.075,0.579,0.384,0.575,0.722c0,0.05-0.004,0.096-0.013,0.145
	c-0.075,0.342-0.38,0.581-0.714,0.581C99.604,9.465,99.554,9.456,99.504,9.448 M84.551,9.714c-0.025-0.079-0.037-0.158-0.033-0.233
	c0-0.304,0.196-0.588,0.501-0.684h0.004c0.384-0.125,0.792,0.083,0.917,0.467c0.025,0.075,0.038,0.154,0.038,0.233
	c-0.004,0.306-0.201,0.585-0.505,0.685c-0.075,0.025-0.151,0.037-0.226,0.037C84.938,10.219,84.65,10.022,84.551,9.714
	 M102.239,10.202c-0.304-0.1-0.496-0.383-0.5-0.688c0-0.075,0.009-0.154,0.037-0.233c0.125-0.384,0.538-0.592,0.922-0.467
	c0.306,0.1,0.496,0.383,0.5,0.688c0,0.079-0.012,0.154-0.037,0.234c-0.1,0.308-0.384,0.504-0.691,0.504
	C102.395,10.24,102.314,10.227,102.239,10.202 M81.818,10.749c-0.033-0.087-0.05-0.179-0.05-0.271
	c0.004-0.288,0.179-0.563,0.467-0.675c0.376-0.147,0.797,0.037,0.943,0.412c0.038,0.087,0.05,0.18,0.05,0.267
	c0,0.292-0.175,0.568-0.463,0.68c-0.087,0.034-0.175,0.05-0.263,0.05C82.21,11.212,81.932,11.037,81.818,10.749 M104.946,11.183
	c-0.288-0.113-0.463-0.384-0.463-0.676c0-0.091,0.018-0.179,0.05-0.267c0.146-0.375,0.572-0.563,0.947-0.413
	c0.288,0.113,0.463,0.384,0.463,0.676c0,0.092-0.017,0.179-0.05,0.267c-0.113,0.288-0.388,0.467-0.68,0.467
	C105.126,11.237,105.034,11.22,104.946,11.183 M79.128,11.88c-0.037-0.092-0.059-0.188-0.059-0.285c0-0.283,0.168-0.554,0.443-0.675
	c0.371-0.159,0.801,0.017,0.959,0.388c0.042,0.092,0.059,0.188,0.059,0.279c0.004,0.288-0.163,0.559-0.442,0.676
	c-0.092,0.042-0.193,0.058-0.289,0.058C79.517,12.321,79.25,12.159,79.128,11.88 M107.625,12.288
	c-0.276-0.117-0.442-0.388-0.442-0.671c0-0.097,0.02-0.192,0.059-0.288c0.157-0.367,0.587-0.543,0.958-0.38
	c0.276,0.117,0.442,0.388,0.442,0.672c0,0.096-0.021,0.192-0.058,0.283c-0.117,0.279-0.389,0.443-0.672,0.443
	C107.816,12.347,107.721,12.33,107.625,12.288 M76.458,13.06c-0.041-0.096-0.062-0.2-0.062-0.3c0-0.28,0.163-0.543,0.434-0.664
	c0.367-0.163,0.801,0.004,0.964,0.371c0.041,0.096,0.062,0.2,0.062,0.301c0,0.279-0.162,0.542-0.433,0.663
	c-0.097,0.041-0.197,0.063-0.297,0.063C76.847,13.494,76.581,13.33,76.458,13.06 M110.29,13.456
	c-0.271-0.121-0.431-0.384-0.435-0.663c0-0.1,0.021-0.201,0.063-0.3c0.167-0.368,0.596-0.534,0.963-0.372
	c0.271,0.121,0.434,0.388,0.434,0.663c0,0.105-0.017,0.205-0.062,0.301c-0.121,0.275-0.389,0.434-0.668,0.434
	C110.485,13.519,110.386,13.502,110.29,13.456 M73.794,14.248c-0.046-0.095-0.067-0.2-0.063-0.3c0-0.279,0.162-0.542,0.433-0.663
	c0.368-0.163,0.797,0.004,0.96,0.371c0.046,0.096,0.067,0.2,0.067,0.3c-0.004,0.276-0.163,0.543-0.434,0.663
	c-0.096,0.042-0.2,0.063-0.296,0.063C74.183,14.682,73.915,14.52,73.794,14.248 M112.96,14.645
	c-0.271-0.121-0.435-0.384-0.435-0.664c0-0.1,0.021-0.2,0.063-0.3c0.163-0.367,0.597-0.534,0.964-0.367
	c0.271,0.117,0.429,0.384,0.433,0.659c0,0.105-0.02,0.205-0.062,0.3c-0.121,0.275-0.389,0.434-0.668,0.434
	C113.155,14.707,113.055,14.691,112.96,14.645 M71.117,15.416c-0.038-0.091-0.059-0.187-0.059-0.284
	c-0.004-0.283,0.163-0.554,0.438-0.675c0.371-0.158,0.801,0.008,0.96,0.38c0.041,0.091,0.062,0.191,0.062,0.283
	c0,0.284-0.163,0.559-0.442,0.676c-0.091,0.042-0.192,0.062-0.288,0.062C71.504,15.858,71.238,15.691,71.117,15.416 M115.638,15.825
	c-0.276-0.121-0.443-0.392-0.439-0.676c0-0.095,0.021-0.192,0.06-0.283c0.158-0.371,0.588-0.543,0.959-0.384
	c0.279,0.121,0.441,0.392,0.441,0.676c0,0.096-0.021,0.191-0.058,0.284c-0.122,0.279-0.388,0.442-0.672,0.442
	C115.833,15.884,115.732,15.863,115.638,15.825 M68.421,16.538c-0.037-0.091-0.054-0.188-0.054-0.283
	c0-0.284,0.17-0.555,0.451-0.668c0.375-0.154,0.8,0.025,0.955,0.401c0.037,0.091,0.054,0.187,0.054,0.283
	c-0.005,0.284-0.175,0.551-0.455,0.668c-0.091,0.037-0.183,0.054-0.275,0.054C68.81,16.993,68.538,16.822,68.421,16.538
	 M118.344,16.964c-0.283-0.117-0.455-0.384-0.455-0.668c-0.004-0.096,0.017-0.191,0.055-0.283c0.149-0.375,0.58-0.555,0.95-0.401
	c0.28,0.113,0.451,0.384,0.455,0.667c0,0.097-0.017,0.193-0.054,0.284c-0.116,0.284-0.389,0.455-0.677,0.455
	C118.527,17.018,118.432,17.001,118.344,16.964 M65.699,17.59c-0.029-0.084-0.047-0.168-0.047-0.251
	c-0.004-0.296,0.176-0.58,0.472-0.688c0.38-0.141,0.797,0.046,0.943,0.425c0.029,0.084,0.045,0.167,0.045,0.251
	c0.005,0.296-0.179,0.579-0.471,0.688c-0.087,0.033-0.174,0.05-0.259,0.05C66.086,18.065,65.812,17.881,65.699,17.59 M121.081,18.04
	c-0.298-0.108-0.477-0.392-0.473-0.689c0-0.083,0.014-0.166,0.045-0.249c0.144-0.38,0.564-0.568,0.939-0.426
	c0.297,0.109,0.476,0.392,0.476,0.688c-0.004,0.084-0.017,0.167-0.05,0.25c-0.109,0.292-0.388,0.476-0.684,0.476
	C121.251,18.09,121.164,18.073,121.081,18.04 M62.941,18.549c-0.025-0.075-0.038-0.154-0.038-0.233c0-0.305,0.192-0.589,0.496-0.693
	c0.384-0.126,0.797,0.079,0.927,0.458c0.024,0.079,0.037,0.159,0.037,0.239c0,0.304-0.192,0.588-0.496,0.688
	c-0.075,0.024-0.155,0.037-0.234,0.037C63.33,19.045,63.045,18.853,62.941,18.549 M123.854,19.032
	c-0.305-0.104-0.496-0.388-0.496-0.692c0-0.075,0.012-0.154,0.037-0.233c0.129-0.384,0.542-0.588,0.926-0.459
	c0.306,0.1,0.496,0.383,0.496,0.688c0,0.079-0.012,0.158-0.037,0.237c-0.104,0.305-0.388,0.497-0.692,0.497
	C124.012,19.07,123.933,19.058,123.854,19.032 M60.15,19.396c-0.02-0.067-0.029-0.134-0.029-0.201
	c-0.004-0.321,0.204-0.613,0.526-0.705c0.388-0.112,0.792,0.109,0.904,0.497c0.018,0.066,0.03,0.133,0.03,0.2
	c0,0.317-0.209,0.613-0.53,0.705c-0.067,0.021-0.133,0.029-0.2,0.029C60.535,19.921,60.243,19.712,60.15,19.396 M126.674,19.913
	L126.674,19.913c-0.322-0.092-0.53-0.384-0.53-0.706c0-0.066,0.012-0.133,0.029-0.199c0.111-0.384,0.517-0.609,0.904-0.497
	c0.322,0.092,0.53,0.384,0.526,0.701c0,0.067-0.008,0.133-0.029,0.2c-0.092,0.321-0.384,0.53-0.7,0.53
	C126.807,19.942,126.739,19.933,126.674,19.913 M57.318,20.1c-0.013-0.054-0.021-0.108-0.021-0.163c0-0.333,0.226-0.634,0.563-0.713
	c0.393-0.096,0.785,0.15,0.88,0.542c0.013,0.055,0.017,0.109,0.017,0.163c0.005,0.334-0.225,0.634-0.563,0.714
	c-0.054,0.012-0.112,0.02-0.167,0.02C57.699,20.663,57.398,20.438,57.318,20.1 M129.533,20.663L129.533,20.663
	c-0.337-0.079-0.566-0.383-0.563-0.713c0-0.054,0.004-0.113,0.017-0.167c0.093-0.391,0.489-0.634,0.881-0.542
	c0.338,0.079,0.563,0.38,0.563,0.713c0,0.055-0.009,0.109-0.021,0.163c-0.079,0.337-0.38,0.563-0.71,0.563
	C129.646,20.68,129.589,20.676,129.533,20.663 M54.454,20.646c-0.008-0.042-0.012-0.084-0.012-0.126c0-0.35,0.25-0.655,0.604-0.717
	c0.396-0.071,0.776,0.196,0.843,0.592c0.008,0.042,0.012,0.088,0.012,0.129c0,0.347-0.25,0.655-0.605,0.714
	c-0.042,0.008-0.083,0.012-0.125,0.012C54.821,21.251,54.517,21.001,54.454,20.646 M132.438,21.255
	c-0.354-0.062-0.604-0.366-0.604-0.712c0-0.047,0.004-0.089,0.008-0.13c0.07-0.4,0.451-0.663,0.847-0.596
	c0.355,0.062,0.6,0.367,0.605,0.717c0,0.042-0.006,0.084-0.014,0.129c-0.063,0.355-0.371,0.601-0.717,0.601
	C132.521,21.264,132.479,21.264,132.438,21.255 M51.559,21.018c-0.004-0.025-0.004-0.05-0.004-0.075
	c-0.004-0.367,0.276-0.689,0.651-0.73c0.4-0.046,0.759,0.241,0.805,0.642c0.004,0.025,0.004,0.05,0.004,0.075
	c0.004,0.371-0.275,0.693-0.651,0.734c-0.025,0-0.054,0.004-0.079,0.004C51.917,21.668,51.601,21.393,51.559,21.018 M135.374,21.672
	L135.374,21.672c-0.375-0.041-0.655-0.358-0.65-0.729c0-0.026,0-0.05,0.004-0.075c0.041-0.401,0.404-0.689,0.805-0.647
	c0.375,0.042,0.654,0.363,0.65,0.73c0,0.025,0,0.05-0.004,0.075c-0.042,0.376-0.359,0.651-0.727,0.651
	C135.428,21.677,135.398,21.677,135.374,21.672 M146.394,21.146v-0.016c0-0.397,0.317-0.718,0.717-0.726
	c0.4-0.004,0.734,0.317,0.743,0.717v0.021c-0.005,0.392-0.322,0.718-0.718,0.722h-0.012
	C146.728,21.865,146.397,21.548,146.394,21.146 M36.969,21.151v-0.016c0-0.396,0.317-0.718,0.718-0.726
	c0.4-0.008,0.734,0.309,0.742,0.713v0.021c-0.004,0.392-0.317,0.718-0.717,0.722h-0.013C37.303,21.865,36.977,21.548,36.969,21.151
	 M40.606,21.869c-0.397-0.008-0.714-0.33-0.718-0.726v-0.017c0.008-0.404,0.342-0.725,0.742-0.717
	c0.396,0.004,0.714,0.33,0.718,0.722v0.02c-0.008,0.397-0.334,0.718-0.73,0.718H40.606z M150.026,21.869
	c-0.396-0.008-0.714-0.334-0.714-0.726v-0.021c0.008-0.4,0.342-0.721,0.743-0.713c0.4,0.008,0.713,0.334,0.717,0.726v0.021
	c-0.012,0.396-0.334,0.713-0.729,0.713H150.026z M48.644,21.193v-0.037c0.004-0.384,0.309-0.706,0.7-0.722
	c0.401-0.021,0.743,0.292,0.76,0.697v0.037c0,0.384-0.305,0.705-0.697,0.726h-0.029C48.985,21.894,48.665,21.589,48.644,21.193
	 M138.336,21.897c-0.394-0.021-0.697-0.338-0.701-0.726v-0.037c0.021-0.405,0.357-0.718,0.763-0.697
	c0.388,0.016,0.693,0.338,0.697,0.722v0.037c-0.018,0.392-0.342,0.701-0.73,0.701H138.336z M143.474,21.218v-0.021
	c0-0.392,0.317-0.717,0.714-0.725c0.404-0.009,0.738,0.312,0.746,0.716v0.018c-0.004,0.395-0.322,0.717-0.718,0.726h-0.013
	C143.808,21.932,143.481,21.614,143.474,21.218 M43.521,21.932c-0.397-0.005-0.713-0.331-0.713-0.722v-0.022
	c0.008-0.399,0.342-0.721,0.742-0.712c0.396,0.004,0.713,0.329,0.717,0.721v0.021c-0.008,0.396-0.333,0.714-0.73,0.714H43.521z
	 M45.728,21.235c-0.004-0.405,0.321-0.734,0.726-0.734c0.404-0.005,0.73,0.325,0.734,0.726c0,0.404-0.325,0.734-0.73,0.734
	C46.054,21.961,45.728,21.635,45.728,21.235 M141.279,21.961c-0.4,0-0.725-0.33-0.725-0.734c0-0.401,0.329-0.726,0.734-0.726
	c0.399,0,0.725,0.329,0.725,0.734c0,0.4-0.329,0.726-0.729,0.726H141.279z M34.054,21.326v-0.057c0-0.376,0.292-0.698,0.676-0.726
	c0.4-0.03,0.75,0.271,0.779,0.675c0.004,0.017,0.004,0.037,0.004,0.055c0,0.379-0.291,0.696-0.675,0.725
	c-0.017,0.004-0.037,0.004-0.054,0.004C34.404,22.002,34.083,21.71,34.054,21.326 M152.899,22.007L152.899,22.007
	c-0.383-0.03-0.671-0.351-0.671-0.73v-0.055c0.029-0.4,0.383-0.701,0.784-0.671c0.384,0.029,0.675,0.35,0.675,0.726
	c0,0.02-0.004,0.037-0.004,0.058c-0.029,0.383-0.35,0.672-0.726,0.672H152.899z M31.167,21.739
	c-0.008-0.041-0.012-0.083-0.012-0.129c0-0.346,0.246-0.655,0.597-0.721c0.396-0.071,0.78,0.191,0.85,0.588
	c0.009,0.045,0.013,0.087,0.013,0.128c0,0.347-0.246,0.655-0.601,0.722h0.005c-0.047,0.008-0.092,0.013-0.134,0.013
	C31.539,22.34,31.229,22.094,31.167,21.739 M155.72,22.34c-0.355-0.067-0.602-0.375-0.596-0.721c0-0.042,0.004-0.088,0.012-0.13
	c0.075-0.396,0.459-0.655,0.854-0.584c0.352,0.067,0.597,0.38,0.593,0.726c0,0.041-0.005,0.083-0.014,0.13
	c-0.065,0.35-0.37,0.592-0.713,0.592C155.812,22.353,155.766,22.349,155.72,22.34 M28.352,22.511
	c-0.021-0.067-0.029-0.133-0.033-0.2c0-0.317,0.204-0.613,0.525-0.71c0.384-0.112,0.793,0.109,0.905,0.497
	c0.021,0.067,0.029,0.133,0.029,0.196c0.004,0.321-0.199,0.613-0.521,0.709c-0.067,0.021-0.137,0.03-0.208,0.03
	C28.735,23.033,28.443,22.828,28.352,22.511 M158.477,23.028c-0.313-0.096-0.517-0.379-0.521-0.693c0-0.07,0.008-0.145,0.032-0.216
	c0.113-0.388,0.521-0.605,0.905-0.488c0.317,0.092,0.517,0.38,0.521,0.688c0,0.071-0.009,0.146-0.029,0.217
	c-0.095,0.317-0.384,0.521-0.7,0.521C158.618,23.057,158.548,23.049,158.477,23.028 M25.599,23.487
	c-0.029-0.08-0.045-0.167-0.045-0.25c-0.005-0.296,0.175-0.58,0.471-0.688c0.375-0.147,0.796,0.045,0.938,0.421
	c0.034,0.087,0.051,0.18,0.051,0.267c-0.005,0.292-0.185,0.567-0.472,0.676c-0.083,0.033-0.171,0.045-0.258,0.045
	C25.987,23.958,25.711,23.779,25.599,23.487 M161.191,23.941c-0.288-0.112-0.467-0.383-0.471-0.675c0-0.088,0.016-0.179,0.05-0.267
	c0.146-0.379,0.567-0.567,0.943-0.421c0.287,0.112,0.467,0.383,0.467,0.675c0.004,0.088-0.013,0.18-0.046,0.267
	c-0.113,0.292-0.388,0.472-0.685,0.472C161.362,23.992,161.274,23.975,161.191,23.941 M23,24.813
	c-0.063-0.109-0.092-0.23-0.092-0.347c-0.004-0.259,0.134-0.513,0.375-0.646c0.351-0.196,0.797-0.067,0.993,0.283
	c0.058,0.113,0.088,0.23,0.092,0.347c0,0.258-0.133,0.513-0.375,0.646c-0.113,0.062-0.234,0.092-0.355,0.092
	C23.379,25.188,23.134,25.055,23,24.813 M163.735,25.139c-0.236-0.134-0.371-0.376-0.375-0.63c0-0.125,0.03-0.25,0.097-0.363
	c0.195-0.355,0.642-0.479,0.991-0.28c0.238,0.13,0.372,0.376,0.372,0.626c0.004,0.125-0.024,0.25-0.092,0.367
	c-0.133,0.238-0.384,0.372-0.638,0.372C163.97,25.23,163.849,25.201,163.735,25.139 M20.605,26.482
	c-0.099-0.13-0.145-0.284-0.145-0.438c0-0.221,0.1-0.438,0.292-0.584c0.321-0.243,0.78-0.176,1.022,0.15
	c0.1,0.129,0.146,0.284,0.146,0.434c0,0.221-0.101,0.442-0.292,0.588c-0.134,0.096-0.288,0.142-0.438,0.142
	C20.97,26.774,20.749,26.674,20.605,26.482 M166.097,26.682c-0.192-0.146-0.292-0.367-0.292-0.588c0-0.151,0.05-0.304,0.146-0.434
	c0.242-0.325,0.701-0.388,1.022-0.146c0.192,0.146,0.291,0.363,0.291,0.589c0,0.15-0.049,0.304-0.146,0.433
	c-0.146,0.192-0.362,0.292-0.584,0.292C166.381,26.828,166.227,26.778,166.097,26.682 M18.45,28.45
	c-0.137-0.142-0.208-0.321-0.208-0.504c-0.004-0.192,0.071-0.384,0.221-0.53c0.288-0.279,0.751-0.275,1.03,0.017
	c0.137,0.137,0.208,0.317,0.208,0.501c0,0.191-0.071,0.383-0.221,0.529c-0.141,0.138-0.325,0.209-0.508,0.209
	C18.784,28.672,18.592,28.597,18.45,28.45 M168.236,28.521L168.236,28.521c-0.146-0.138-0.217-0.325-0.221-0.512
	c0-0.189,0.067-0.376,0.209-0.518c0.283-0.287,0.742-0.292,1.034-0.012c0.141,0.141,0.216,0.329,0.216,0.517
	c0,0.183-0.066,0.371-0.208,0.517s-0.334,0.217-0.521,0.217C168.562,28.729,168.379,28.663,168.236,28.521 M16.543,30.661
	c-0.175-0.142-0.267-0.35-0.267-0.559c0-0.167,0.054-0.33,0.163-0.467c0.258-0.313,0.717-0.359,1.03-0.105
	c0.175,0.147,0.267,0.355,0.267,0.564c0,0.162-0.054,0.33-0.167,0.463h0.004c-0.146,0.179-0.354,0.271-0.567,0.271
	C16.845,30.828,16.682,30.774,16.543,30.661 M170.139,30.628c-0.113-0.138-0.167-0.305-0.167-0.467
	c0.004-0.213,0.096-0.417,0.271-0.564c0.313-0.254,0.771-0.204,1.026,0.109c0.113,0.137,0.167,0.3,0.162,0.467
	c0,0.208-0.091,0.417-0.266,0.559c-0.139,0.108-0.301,0.163-0.464,0.163C170.492,30.895,170.279,30.803,170.139,30.628
	 M14.854,33.043c-0.209-0.142-0.321-0.371-0.321-0.605c0-0.142,0.042-0.283,0.125-0.409c0.229-0.333,0.68-0.421,1.018-0.196
	c0.204,0.142,0.317,0.375,0.317,0.609c0,0.138-0.042,0.28-0.125,0.405c-0.142,0.208-0.372,0.321-0.605,0.321
	C15.122,33.168,14.979,33.126,14.854,33.043 M171.836,32.922c-0.087-0.126-0.125-0.267-0.125-0.409c0-0.234,0.112-0.463,0.32-0.605
	c0.334-0.225,0.789-0.137,1.015,0.196c0.083,0.125,0.125,0.267,0.125,0.409c0,0.234-0.112,0.463-0.321,0.605
	c-0.125,0.083-0.271,0.125-0.409,0.125C172.208,33.243,171.974,33.13,171.836,32.922 M13.366,35.554
	c-0.238-0.134-0.371-0.38-0.371-0.63c0-0.125,0.029-0.251,0.096-0.363c0.2-0.355,0.642-0.476,0.993-0.276
	c0.237,0.134,0.37,0.376,0.37,0.63c0,0.122-0.028,0.251-0.095,0.363c-0.134,0.238-0.38,0.372-0.634,0.372
	C13.604,35.65,13.479,35.616,13.366,35.554 M173.338,35.353L173.338,35.353c-0.067-0.112-0.097-0.237-0.097-0.362
	c0.005-0.255,0.138-0.497,0.375-0.631c0.351-0.2,0.793-0.075,0.993,0.28c0.063,0.112,0.097,0.238,0.092,0.363
	c0,0.25-0.134,0.496-0.37,0.63c-0.113,0.063-0.238,0.092-0.359,0.092C173.717,35.725,173.472,35.591,173.338,35.353 M12.077,38.173
	c-0.267-0.125-0.425-0.392-0.421-0.667c0.004-0.104,0.025-0.205,0.071-0.301c0.171-0.367,0.605-0.525,0.967-0.354
	c0.272,0.125,0.426,0.391,0.422,0.671c0,0.1-0.021,0.204-0.067,0.301c-0.125,0.262-0.388,0.42-0.663,0.42
	C12.282,38.243,12.177,38.223,12.077,38.173 M174.643,37.902c-0.046-0.096-0.067-0.201-0.067-0.3
	c-0.004-0.28,0.155-0.547,0.422-0.672c0.367-0.167,0.802-0.008,0.969,0.359c0.046,0.095,0.065,0.196,0.069,0.296
	c0,0.279-0.153,0.547-0.425,0.671c-0.1,0.046-0.204,0.067-0.305,0.067C175.03,38.323,174.768,38.169,174.643,37.902 M11.035,40.901
	c-0.305-0.105-0.497-0.392-0.497-0.697c0-0.075,0.012-0.154,0.042-0.233v0.004c0.129-0.384,0.542-0.589,0.926-0.459
	c0.304,0.104,0.492,0.392,0.492,0.697c0,0.075-0.012,0.154-0.038,0.233c-0.104,0.304-0.387,0.492-0.692,0.492
	C11.188,40.938,11.109,40.925,11.035,40.901 M175.723,40.525c-0.028-0.079-0.041-0.158-0.041-0.233
	c0.004-0.305,0.196-0.588,0.5-0.693c0.38-0.125,0.797,0.079,0.926,0.463c0.025,0.075,0.038,0.155,0.038,0.234
	c0,0.304-0.196,0.588-0.501,0.688c-0.075,0.025-0.154,0.038-0.233,0.038C176.106,41.021,175.823,40.83,175.723,40.525 M10.43,43.753
	c-0.355-0.058-0.605-0.366-0.605-0.713c0-0.041,0.004-0.083,0.013-0.129c0.066-0.396,0.445-0.663,0.842-0.592
	c0.355,0.058,0.605,0.367,0.605,0.713c0,0.042-0.004,0.088-0.009,0.129c-0.062,0.355-0.371,0.605-0.721,0.605
	C10.513,43.766,10.472,43.762,10.43,43.753 M176.395,43.245c-0.008-0.042-0.013-0.084-0.013-0.13
	c0.005-0.346,0.255-0.65,0.608-0.709c0.397-0.066,0.777,0.2,0.845,0.597c0.008,0.042,0.008,0.087,0.008,0.129
	c-0.004,0.346-0.255,0.651-0.609,0.713c-0.038,0.004-0.079,0.009-0.121,0.009C176.762,43.854,176.452,43.603,176.395,43.245
	 M10.212,46.665c-0.392-0.017-0.697-0.338-0.697-0.721v-0.038c0.017-0.405,0.359-0.717,0.763-0.697
	c0.388,0.017,0.693,0.338,0.697,0.726c0,0.013,0,0.025-0.004,0.038c-0.017,0.387-0.338,0.696-0.726,0.696
	C10.233,46.669,10.221,46.669,10.212,46.665 M176.683,46.056L176.683,46.056v-0.038c0.004-0.383,0.308-0.704,0.701-0.721
	c0.399-0.017,0.742,0.296,0.758,0.701v0.037c-0.004,0.384-0.307,0.705-0.7,0.722h-0.03
	C177.024,46.757,176.699,46.448,176.683,46.056 M9.544,48.901H9.55c-0.005-0.017-0.005-0.038-0.005-0.055
	c0.005-0.38,0.301-0.692,0.684-0.717c0.401-0.029,0.747,0.275,0.776,0.68v0.037c0.005,0.384-0.292,0.714-0.684,0.738h-0.046
	C9.892,49.583,9.57,49.289,9.544,48.901 M177.32,49.672c-0.384-0.025-0.676-0.342-0.68-0.721c0-0.017,0.004-0.038,0.004-0.055
	c0.026-0.404,0.376-0.709,0.776-0.679c0.384,0.025,0.68,0.346,0.68,0.721v0.058c-0.025,0.384-0.346,0.68-0.726,0.68
	C177.357,49.676,177.342,49.676,177.32,49.672 M9.899,51.878c-0.008-0.045-0.012-0.087-0.012-0.129c0-0.346,0.254-0.654,0.604-0.713
	c0.4-0.071,0.776,0.197,0.843,0.596c0.008,0.042,0.012,0.084,0.012,0.13c-0.004,0.346-0.254,0.651-0.604,0.713
	c-0.042,0.004-0.084,0.008-0.126,0.008C10.267,52.483,9.958,52.233,9.899,51.878 M176.896,52.563
	c-0.354-0.063-0.604-0.368-0.604-0.718c0-0.042,0.004-0.083,0.012-0.129c0.066-0.396,0.446-0.663,0.843-0.592
	c0.354,0.062,0.605,0.366,0.605,0.717c0,0.042-0.004,0.084-0.01,0.129c-0.062,0.355-0.37,0.601-0.721,0.601
	C176.979,52.571,176.937,52.571,176.896,52.563 M10.563,54.803L10.563,54.803c-0.021-0.067-0.029-0.138-0.029-0.201
	c0-0.321,0.209-0.613,0.53-0.705c0.388-0.108,0.792,0.117,0.901,0.501c0.021,0.067,0.029,0.138,0.029,0.2
	c0,0.321-0.209,0.613-0.53,0.705c-0.067,0.016-0.133,0.029-0.2,0.029C10.947,55.332,10.655,55.124,10.563,54.803 M176.161,55.386
	c-0.321-0.092-0.529-0.387-0.525-0.705c0-0.066,0.008-0.133,0.029-0.2c0.112-0.384,0.517-0.609,0.9-0.496
	c0.321,0.092,0.53,0.387,0.53,0.705c0,0.066-0.013,0.133-0.03,0.2c-0.091,0.317-0.383,0.526-0.7,0.526
	C176.299,55.416,176.228,55.407,176.161,55.386 M11.56,57.639c-0.038-0.092-0.059-0.188-0.059-0.284
	c0-0.283,0.168-0.555,0.447-0.671c0.371-0.159,0.801,0.012,0.955,0.383c0.042,0.092,0.058,0.192,0.058,0.284
	c0,0.288-0.166,0.555-0.446,0.675c-0.092,0.038-0.188,0.059-0.284,0.059C11.948,58.085,11.677,57.918,11.56,57.639 M175.098,58.105
	c-0.275-0.121-0.442-0.393-0.442-0.676c0-0.096,0.021-0.192,0.059-0.283c0.159-0.372,0.588-0.543,0.959-0.384
	c0.279,0.12,0.446,0.392,0.442,0.675c0,0.096-0.017,0.192-0.059,0.284c-0.116,0.275-0.388,0.442-0.671,0.442
	C175.29,58.164,175.193,58.147,175.098,58.105 M12.919,60.312c-0.063-0.117-0.096-0.242-0.096-0.363
	c0.004-0.254,0.137-0.5,0.371-0.634c0.355-0.196,0.797-0.071,0.997,0.28c0.062,0.113,0.096,0.237,0.092,0.363
	c0,0.254-0.134,0.496-0.372,0.63c-0.112,0.066-0.233,0.096-0.354,0.096C13.303,60.684,13.053,60.55,12.919,60.312 M173.695,60.666
	c-0.236-0.133-0.371-0.379-0.371-0.629c0-0.125,0.03-0.25,0.097-0.367c0.195-0.351,0.643-0.472,0.993-0.276
	c0.237,0.134,0.37,0.38,0.37,0.631c0,0.124-0.028,0.25-0.096,0.362c-0.133,0.238-0.379,0.372-0.634,0.372
	C173.934,60.759,173.809,60.729,173.695,60.666 M14.559,62.831c-0.096-0.133-0.146-0.287-0.142-0.437
	c0-0.226,0.104-0.443,0.296-0.585c0.326-0.237,0.784-0.171,1.022,0.155c0.096,0.133,0.142,0.288,0.142,0.438
	c-0.004,0.221-0.104,0.442-0.296,0.584c-0.134,0.096-0.284,0.142-0.434,0.142C14.921,63.128,14.701,63.022,14.559,62.831
	 M172.023,63.057c-0.196-0.142-0.296-0.359-0.3-0.584c0-0.15,0.046-0.305,0.142-0.438c0.241-0.322,0.696-0.392,1.021-0.155
	c0.191,0.142,0.296,0.363,0.296,0.585c0.005,0.149-0.041,0.304-0.141,0.437c-0.143,0.196-0.363,0.297-0.589,0.297
	C172.303,63.199,172.152,63.153,172.023,63.057 M16.177,65.167c-0.066-0.112-0.1-0.237-0.1-0.363
	c-0.004-0.25,0.125-0.496,0.359-0.634c0.346-0.208,0.792-0.091,0.997,0.255c0.07,0.121,0.104,0.25,0.104,0.379
	c-0.004,0.246-0.129,0.488-0.359,0.622c-0.117,0.071-0.246,0.1-0.371,0.1C16.557,65.526,16.314,65.4,16.177,65.167 M170.435,65.505
	c-0.234-0.138-0.363-0.384-0.363-0.634c0-0.125,0.033-0.25,0.101-0.363c0.2-0.35,0.649-0.467,0.997-0.263
	c0.233,0.134,0.366,0.38,0.362,0.634c0,0.122-0.033,0.247-0.101,0.363h0.005c-0.137,0.234-0.384,0.363-0.634,0.363
	C170.677,65.604,170.552,65.572,170.435,65.505 M17.178,67.637c-0.012-0.047-0.016-0.097-0.016-0.146
	c0-0.338,0.237-0.643,0.583-0.714c0.392-0.083,0.781,0.171,0.86,0.567c0.012,0.051,0.016,0.101,0.016,0.147
	c0,0.341-0.238,0.646-0.584,0.716c-0.049,0.009-0.1,0.013-0.146,0.013C17.549,68.22,17.245,67.983,17.178,67.637 M169.608,68.296
	c-0.346-0.067-0.588-0.368-0.593-0.71c0-0.046,0.005-0.095,0.013-0.146c0.075-0.396,0.459-0.655,0.855-0.58
	c0.346,0.067,0.588,0.372,0.592,0.71c0,0.049-0.004,0.1-0.012,0.145h-0.004c-0.067,0.351-0.371,0.593-0.714,0.593
	C169.7,68.308,169.654,68.304,169.608,68.296 M17.779,71.106c-0.351-0.066-0.597-0.376-0.592-0.722c0-0.046,0.004-0.088,0.012-0.129
	c0.071-0.397,0.454-0.659,0.851-0.585c0.354,0.066,0.596,0.376,0.596,0.722c0,0.046-0.008,0.088-0.012,0.13
	c-0.067,0.351-0.375,0.597-0.717,0.597C17.871,71.119,17.824,71.114,17.779,71.106 M169.042,70.622L169.042,70.622
	c-0.009-0.05-0.018-0.1-0.018-0.15c0.004-0.337,0.242-0.642,0.588-0.713c0.396-0.075,0.78,0.179,0.859,0.576v-0.004
	c0.009,0.05,0.013,0.1,0.013,0.149c0,0.337-0.237,0.643-0.584,0.713c-0.05,0.01-0.096,0.014-0.146,0.014
	C169.417,71.207,169.112,70.969,169.042,70.622 M16.502,73.729c-0.234-0.138-0.367-0.384-0.363-0.634
	c0-0.125,0.029-0.25,0.096-0.362c0.2-0.352,0.646-0.472,0.996-0.268C17.466,72.6,17.6,72.846,17.6,73.1
	c0,0.125-0.034,0.251-0.101,0.363c-0.133,0.233-0.379,0.363-0.634,0.363C16.745,73.826,16.619,73.797,16.502,73.729 M170.2,73.547
	L170.2,73.547c-0.066-0.117-0.099-0.243-0.099-0.363c-0.005-0.255,0.124-0.501,0.358-0.639c0.35-0.204,0.797-0.087,1.001,0.259
	c0.066,0.117,0.1,0.242,0.1,0.363c0.004,0.254-0.125,0.5-0.359,0.638c-0.116,0.067-0.245,0.1-0.37,0.1
	C170.581,73.904,170.339,73.775,170.2,73.547 M14.784,76.091c-0.192-0.142-0.292-0.359-0.296-0.584c0-0.15,0.046-0.304,0.142-0.435
	c0.242-0.324,0.696-0.396,1.022-0.154c0.192,0.143,0.296,0.359,0.296,0.581c0,0.153-0.046,0.308-0.142,0.437
	c-0.142,0.196-0.363,0.301-0.588,0.301C15.067,76.236,14.917,76.186,14.784,76.091 M171.902,76.007
	c-0.1-0.129-0.146-0.283-0.146-0.433c0.004-0.226,0.108-0.442,0.3-0.586c0.326-0.236,0.78-0.17,1.018,0.155
	c0.101,0.134,0.146,0.288,0.143,0.438c0,0.221-0.104,0.441-0.296,0.584c-0.13,0.096-0.28,0.142-0.431,0.142
	C172.266,76.308,172.045,76.203,171.902,76.007 M13.258,78.577c-0.238-0.135-0.372-0.381-0.372-0.631c0-0.126,0.03-0.25,0.096-0.366
	c0.196-0.352,0.643-0.472,0.993-0.275c0.233,0.133,0.367,0.379,0.371,0.629c0,0.125-0.029,0.251-0.096,0.367
	c-0.133,0.238-0.379,0.371-0.634,0.371C13.491,78.672,13.37,78.639,13.258,78.577 M173.445,78.376
	c-0.062-0.112-0.096-0.237-0.091-0.363c0-0.254,0.133-0.496,0.367-0.629c0.354-0.2,0.796-0.075,0.996,0.275
	c0.063,0.116,0.097,0.241,0.097,0.362c-0.004,0.254-0.138,0.501-0.372,0.634c-0.111,0.063-0.236,0.093-0.357,0.093
	C173.83,78.748,173.58,78.613,173.445,78.376 M11.994,81.205c-0.28-0.118-0.446-0.39-0.442-0.677c0-0.092,0.021-0.188,0.058-0.283
	v0.004c0.158-0.371,0.588-0.542,0.959-0.384c0.276,0.117,0.442,0.388,0.442,0.676c0,0.092-0.02,0.188-0.058,0.283
	c-0.121,0.275-0.392,0.442-0.671,0.442C12.182,81.267,12.085,81.246,11.994,81.205 M174.739,80.903h-0.005
	c-0.037-0.092-0.054-0.191-0.058-0.283c0-0.287,0.167-0.555,0.446-0.676c0.37-0.158,0.801,0.018,0.96,0.389
	c0.036,0.091,0.054,0.188,0.057,0.282c0,0.284-0.166,0.556-0.445,0.673c-0.092,0.042-0.192,0.058-0.284,0.058
	C175.127,81.346,174.855,81.18,174.739,80.903 M11.093,83.981c-0.317-0.091-0.526-0.387-0.526-0.705c0-0.066,0.013-0.133,0.03-0.199
	c0.112-0.389,0.521-0.609,0.904-0.497c0.322,0.097,0.53,0.389,0.526,0.706c0,0.066-0.008,0.133-0.029,0.199
	c-0.092,0.317-0.384,0.526-0.697,0.526C11.229,84.012,11.164,84.003,11.093,83.981 M175.678,83.568L175.678,83.568
	c-0.018-0.066-0.03-0.133-0.03-0.199c0-0.317,0.209-0.609,0.53-0.701c0.388-0.112,0.793,0.112,0.905,0.497
	c0.017,0.065,0.029,0.137,0.029,0.199c0,0.321-0.209,0.613-0.529,0.705c-0.067,0.021-0.139,0.029-0.205,0.029
	C176.062,84.099,175.769,83.891,175.678,83.568 M10.513,86.844c-0.354-0.063-0.605-0.368-0.605-0.718
	c0-0.042,0.005-0.083,0.013-0.129c0.067-0.397,0.446-0.659,0.842-0.593c0.355,0.063,0.605,0.371,0.605,0.718
	c0,0.041-0.004,0.087-0.012,0.129c-0.063,0.354-0.372,0.604-0.718,0.604C10.597,86.855,10.555,86.852,10.513,86.844 M176.312,86.338
	c-0.009-0.041-0.013-0.087-0.013-0.129c0.004-0.347,0.255-0.655,0.608-0.712c0.397-0.071,0.776,0.194,0.844,0.591
	c0.008,0.046,0.013,0.088,0.013,0.13c-0.005,0.346-0.255,0.654-0.609,0.717c-0.042,0.004-0.084,0.008-0.121,0.008
	C176.683,86.942,176.374,86.692,176.312,86.338 M10.233,89.75c-0.384-0.024-0.676-0.347-0.68-0.722v-0.058
	c0.029-0.401,0.38-0.705,0.78-0.676c0.383,0.024,0.676,0.342,0.68,0.721v0.055c-0.03,0.389-0.351,0.68-0.731,0.68H10.233z
	 M176.648,89.162c-0.004-0.021-0.004-0.037-0.004-0.059c0.004-0.375,0.301-0.697,0.684-0.717c0.401-0.029,0.747,0.275,0.776,0.676
	v0.059c-0.004,0.379-0.296,0.691-0.68,0.721h-0.05C176.996,89.842,176.675,89.546,176.648,89.162 M9.512,91.969
	c0-0.012-0.004-0.024,0-0.037c0-0.384,0.309-0.705,0.697-0.721c0.404-0.018,0.742,0.295,0.759,0.7v0.038
	c-0.005,0.383-0.309,0.704-0.697,0.721h-0.033C9.85,92.67,9.524,92.361,9.512,91.969 M177.379,92.758
	c-0.393-0.018-0.696-0.338-0.696-0.722c-0.004-0.013,0-0.024,0-0.037c0.017-0.405,0.359-0.719,0.759-0.697
	c0.394,0.017,0.696,0.338,0.7,0.722c0,0.013-0.004,0.024-0.004,0.037c-0.016,0.393-0.342,0.701-0.73,0.701
	C177.399,92.762,177.388,92.762,177.379,92.758 M9.815,94.965L9.815,94.965c-0.008-0.043-0.012-0.088-0.012-0.13
	c0.004-0.347,0.254-0.651,0.609-0.714c0.4-0.066,0.776,0.205,0.842,0.601c0.009,0.042,0.009,0.088,0.009,0.13
	c-0.004,0.345-0.254,0.651-0.609,0.713c-0.042,0.004-0.079,0.008-0.121,0.008C10.184,95.572,9.875,95.318,9.815,94.965
	 M176.979,95.651c-0.354-0.062-0.601-0.366-0.604-0.713c0-0.045,0.004-0.087,0.013-0.129c0.065-0.396,0.441-0.667,0.843-0.596
	c0.351,0.058,0.601,0.366,0.605,0.713c0,0.042-0.005,0.083-0.014,0.129c-0.058,0.354-0.368,0.605-0.718,0.605
	C177.062,95.661,177.021,95.656,176.979,95.651 M10.538,97.909v-0.005C10.513,97.83,10.5,97.75,10.5,97.671
	c0-0.304,0.191-0.588,0.5-0.688c0.38-0.129,0.793,0.079,0.922,0.463c0.025,0.075,0.037,0.154,0.037,0.233
	c0,0.305-0.196,0.585-0.5,0.689c-0.075,0.024-0.154,0.036-0.23,0.036C10.926,98.404,10.638,98.213,10.538,97.909 M176.161,98.451
	c-0.305-0.104-0.496-0.389-0.496-0.692c0-0.076,0.013-0.155,0.042-0.234c0.129-0.38,0.542-0.584,0.926-0.455
	c0.3,0.105,0.492,0.39,0.492,0.693c0,0.075-0.013,0.155-0.037,0.234c-0.105,0.304-0.389,0.496-0.693,0.496
	C176.315,98.493,176.24,98.479,176.161,98.451 M11.673,100.683L11.673,100.683c-0.046-0.097-0.067-0.2-0.067-0.301
	c-0.004-0.275,0.154-0.542,0.421-0.667c0.367-0.171,0.801-0.013,0.972,0.354c0.042,0.1,0.067,0.2,0.067,0.301
	c0.004,0.278-0.155,0.546-0.426,0.667c-0.096,0.046-0.204,0.07-0.304,0.07C12.06,101.107,11.798,100.949,11.673,100.683
	 M174.973,101.12c-0.267-0.124-0.425-0.393-0.421-0.671c0-0.101,0.02-0.204,0.065-0.301c0.172-0.362,0.605-0.521,0.973-0.35
	c0.267,0.124,0.426,0.392,0.422,0.667c0,0.1-0.026,0.204-0.067,0.3c-0.125,0.268-0.388,0.421-0.663,0.421
	C175.177,101.187,175.072,101.166,174.973,101.12 M13.027,103.335c-0.062-0.116-0.096-0.241-0.092-0.367
	c0-0.25,0.134-0.496,0.371-0.63c0.351-0.195,0.797-0.07,0.993,0.28c0.067,0.116,0.096,0.24,0.096,0.362
	c-0.004,0.254-0.137,0.496-0.371,0.629c-0.117,0.067-0.238,0.098-0.359,0.098C13.412,103.707,13.162,103.572,13.027,103.335
	 M173.588,103.689c-0.238-0.134-0.371-0.38-0.371-0.63c-0.004-0.126,0.029-0.25,0.091-0.367c0.201-0.351,0.647-0.475,0.997-0.274
	c0.234,0.133,0.368,0.379,0.372,0.629c0,0.126-0.03,0.251-0.097,0.367c-0.134,0.237-0.384,0.372-0.638,0.372
	C173.821,103.786,173.7,103.752,173.588,103.689 M14.592,105.871c-0.083-0.129-0.125-0.271-0.125-0.413
	c0-0.233,0.113-0.463,0.321-0.604c0.334-0.225,0.789-0.134,1.014,0.2c0.083,0.125,0.125,0.267,0.125,0.408
	c0,0.233-0.113,0.463-0.321,0.604c-0.125,0.083-0.267,0.125-0.409,0.125C14.963,106.191,14.733,106.079,14.592,105.871
	 M171.999,106.138c-0.208-0.142-0.321-0.371-0.321-0.604c0-0.142,0.042-0.283,0.125-0.408c0.225-0.334,0.68-0.422,1.013-0.192
	c0.209,0.137,0.322,0.367,0.322,0.604c0,0.138-0.042,0.279-0.125,0.404v0.004c-0.142,0.204-0.372,0.317-0.605,0.317
	C172.266,106.263,172.124,106.226,171.999,106.138 M16.36,108.27h0.004c-0.113-0.138-0.167-0.305-0.163-0.467
	c0-0.209,0.092-0.417,0.267-0.56c0.313-0.255,0.776-0.208,1.026,0.104h0.004c0.109,0.137,0.163,0.304,0.163,0.467
	c-0.004,0.212-0.096,0.417-0.271,0.563c-0.138,0.107-0.3,0.163-0.459,0.163C16.72,108.541,16.507,108.443,16.36,108.27
	 M170.205,108.443c-0.175-0.141-0.268-0.35-0.268-0.562c0-0.163,0.055-0.33,0.164-0.464c0.253-0.313,0.716-0.362,1.029-0.108
	c0.176,0.147,0.267,0.355,0.267,0.563c0,0.163-0.054,0.33-0.162,0.467c-0.146,0.176-0.354,0.268-0.567,0.268
	C170.506,108.607,170.343,108.553,170.205,108.443 M18.375,110.497c-0.146-0.143-0.216-0.33-0.221-0.514
	c0-0.188,0.071-0.376,0.213-0.521c0.279-0.283,0.742-0.292,1.03-0.008c0.142,0.142,0.217,0.33,0.217,0.513
	c0.004,0.188-0.067,0.376-0.208,0.521c-0.142,0.142-0.33,0.217-0.522,0.217C18.701,110.705,18.517,110.634,18.375,110.497
	 M168.183,110.547c-0.138-0.137-0.205-0.321-0.209-0.501c0-0.191,0.075-0.388,0.225-0.53c0.288-0.283,0.747-0.275,1.031,0.013
	c0.133,0.139,0.204,0.321,0.204,0.501c0.004,0.192-0.071,0.389-0.217,0.529c-0.146,0.138-0.329,0.209-0.514,0.209
	C168.516,110.768,168.323,110.692,168.183,110.547 M20.652,112.465L20.652,112.465c-0.192-0.146-0.293-0.366-0.288-0.588
	c0-0.15,0.046-0.305,0.146-0.435c0.242-0.324,0.701-0.387,1.022-0.141c0.192,0.141,0.291,0.363,0.291,0.583
	c0,0.155-0.049,0.305-0.15,0.439c-0.141,0.187-0.358,0.286-0.579,0.286C20.94,112.61,20.786,112.565,20.652,112.465
	 M165.904,112.374c-0.095-0.135-0.142-0.284-0.142-0.439c-0.004-0.22,0.101-0.44,0.292-0.583c0.321-0.242,0.78-0.175,1.018,0.146
	c0.101,0.129,0.146,0.282,0.146,0.437c0,0.222-0.101,0.439-0.292,0.584h0.004c-0.133,0.096-0.288,0.146-0.438,0.146
	C166.268,112.665,166.051,112.565,165.904,112.374 M23.176,114.117c-0.238-0.134-0.371-0.377-0.371-0.63
	c-0.004-0.12,0.029-0.247,0.092-0.363c0.196-0.351,0.642-0.476,0.993-0.279c0.237,0.134,0.371,0.38,0.375,0.63
	c0,0.125-0.029,0.25-0.096,0.363c-0.134,0.242-0.38,0.375-0.638,0.375C23.41,114.213,23.289,114.184,23.176,114.117
	 M163.406,113.879c-0.063-0.108-0.092-0.229-0.092-0.346c-0.004-0.26,0.134-0.514,0.375-0.646c0.352-0.196,0.797-0.071,0.993,0.283
	c0.063,0.108,0.091,0.229,0.091,0.347c0.005,0.258-0.132,0.513-0.374,0.646c-0.113,0.062-0.233,0.092-0.354,0.092
	C163.791,114.255,163.54,114.121,163.406,113.879 M25.908,115.41L25.908,115.41c-0.288-0.112-0.463-0.389-0.467-0.677
	c0-0.091,0.017-0.179,0.05-0.271c0.146-0.375,0.567-0.563,0.942-0.417c0.288,0.113,0.468,0.388,0.468,0.676
	c0,0.091-0.017,0.179-0.05,0.271c-0.109,0.287-0.388,0.463-0.68,0.463C26.083,115.456,25.995,115.442,25.908,115.41
	 M160.721,115.018c-0.034-0.088-0.051-0.179-0.051-0.267c0.005-0.292,0.184-0.563,0.472-0.677c0.376-0.142,0.796,0.047,0.942,0.427
	c0.033,0.088,0.051,0.175,0.047,0.267c0,0.288-0.181,0.563-0.469,0.671c-0.087,0.034-0.175,0.05-0.258,0.05
	C161.108,115.488,160.833,115.311,160.721,115.018 M28.728,116.36c-0.313-0.092-0.518-0.379-0.522-0.691
	c0-0.071,0.008-0.146,0.034-0.217c0.112-0.389,0.521-0.605,0.905-0.488c0.316,0.092,0.517,0.379,0.521,0.691
	c0,0.071-0.008,0.143-0.029,0.218c-0.096,0.316-0.388,0.521-0.701,0.518C28.865,116.391,28.793,116.382,28.728,116.36
	 M157.935,115.894c-0.022-0.071-0.03-0.146-0.03-0.217c0.004-0.309,0.209-0.597,0.522-0.688c0.384-0.116,0.793,0.104,0.909,0.488
	c0.017,0.066,0.029,0.133,0.029,0.2c0.004,0.317-0.2,0.613-0.521,0.709c-0.071,0.021-0.143,0.029-0.209,0.029
	C158.317,116.415,158.03,116.211,157.935,115.894 M31.631,117.087c-0.351-0.067-0.597-0.376-0.593-0.727
	c0-0.041,0.004-0.083,0.013-0.129c0.075-0.396,0.454-0.654,0.855-0.58c0.35,0.067,0.596,0.375,0.592,0.727
	c0,0.041-0.004,0.083-0.013,0.129c-0.066,0.346-0.371,0.592-0.717,0.592C31.722,117.099,31.677,117.095,31.631,117.087
	 M155.082,116.52c-0.005-0.046-0.009-0.088-0.014-0.129c0-0.347,0.246-0.656,0.602-0.722c0.396-0.075,0.774,0.188,0.85,0.584
	c0.009,0.041,0.013,0.087,0.013,0.129c0,0.346-0.246,0.655-0.601,0.722c-0.041,0.008-0.087,0.012-0.133,0.012
	C155.457,117.115,155.147,116.87,155.082,116.52 M34.607,117.444c-0.383-0.028-0.675-0.346-0.675-0.725
	c0-0.017,0.004-0.038,0.004-0.054c0.03-0.405,0.384-0.705,0.784-0.677c0.384,0.029,0.676,0.351,0.672,0.73v0.058
	c-0.029,0.381-0.35,0.672-0.726,0.672C34.646,117.449,34.629,117.449,34.607,117.444 M152.175,116.781v-0.058
	c0-0.376,0.291-0.697,0.675-0.726c0.401-0.029,0.751,0.271,0.78,0.676c0.004,0.016,0.004,0.037,0.004,0.054
	c0,0.376-0.292,0.696-0.676,0.727c-0.017,0.004-0.037,0.004-0.055,0.004C152.524,117.458,152.203,117.166,152.175,116.781
	 M46.336,117.5h-0.004H46.336h-0.004H46.336c-0.404-0.005-0.73-0.33-0.73-0.735c0-0.4,0.33-0.725,0.734-0.725
	c0.401,0,0.726,0.329,0.726,0.729C47.066,117.174,46.738,117.5,46.336,117.5 M140.5,116.77c0-0.4,0.324-0.729,0.726-0.729
	c0.404,0,0.734,0.324,0.734,0.725c0,0.405-0.325,0.73-0.727,0.735C140.83,117.5,140.5,117.174,140.5,116.77 M144.137,117.524
	c-0.4-0.004-0.718-0.33-0.718-0.722v-0.021c0.009-0.403,0.343-0.725,0.742-0.717c0.4,0.008,0.718,0.334,0.718,0.727v0.021
	c-0.008,0.396-0.333,0.717-0.73,0.717C144.145,117.528,144.141,117.528,144.137,117.524 M42.688,116.812v-0.017
	c0.004-0.396,0.321-0.718,0.717-0.727c0.401-0.008,0.734,0.313,0.742,0.713v0.021c0,0.392-0.317,0.718-0.713,0.726h-0.016
	C43.021,117.528,42.696,117.212,42.688,116.812 M49.224,117.562L49.224,117.562c-0.389-0.016-0.693-0.338-0.697-0.726v-0.037
	c0.017-0.4,0.359-0.714,0.759-0.697c0.392,0.018,0.697,0.339,0.701,0.723v0.037c-0.017,0.396-0.342,0.7-0.73,0.7H49.224z
	 M137.585,116.87c0-0.013-0.005-0.025-0.005-0.038c0.005-0.388,0.309-0.709,0.7-0.727c0.401-0.016,0.743,0.297,0.76,0.697v0.038
	c0,0.387-0.305,0.705-0.696,0.725h-0.034C137.922,117.565,137.602,117.258,137.585,116.87 M36.848,116.865v-0.021
	c0.013-0.404,0.347-0.722,0.747-0.713c0.396,0.008,0.713,0.334,0.713,0.726v0.021c-0.008,0.4-0.342,0.722-0.743,0.714
	C37.165,117.583,36.853,117.258,36.848,116.865 M150.001,117.592L150.001,117.592c-0.4,0.008-0.734-0.313-0.742-0.714v-0.021
	c0-0.392,0.316-0.718,0.713-0.726c0.405-0.009,0.739,0.313,0.747,0.717v0.017C150.715,117.262,150.396,117.583,150.001,117.592
	 M147.057,117.592L147.057,117.592c-0.396-0.004-0.718-0.33-0.718-0.722v-0.021c0.005-0.399,0.338-0.726,0.743-0.717
	c0.396,0.008,0.713,0.329,0.717,0.726v0.021c-0.008,0.396-0.333,0.714-0.73,0.714H147.057z M40.51,117.596v-0.004
	c-0.4,0.008-0.733-0.313-0.738-0.714v-0.021c0-0.396,0.317-0.718,0.713-0.722c0.405-0.008,0.739,0.313,0.743,0.717
	c0.004,0.005,0.004,0.013,0,0.018C41.228,117.266,40.911,117.588,40.51,117.596 M52.088,117.774
	c-0.376-0.041-0.651-0.358-0.651-0.729c0-0.025,0.005-0.05,0.005-0.075c0.046-0.4,0.404-0.688,0.805-0.646
	c0.375,0.04,0.654,0.357,0.65,0.729c0,0.025,0,0.05-0.004,0.075c-0.042,0.375-0.359,0.649-0.726,0.649
	C52.143,117.778,52.118,117.778,52.088,117.774 M134.677,117.141c-0.004-0.025-0.004-0.05-0.004-0.075
	c-0.004-0.372,0.271-0.691,0.646-0.733c0.405-0.042,0.764,0.246,0.81,0.646c0,0.025,0.004,0.049,0.004,0.075
	c0,0.37-0.275,0.688-0.651,0.729c-0.029,0.005-0.054,0.005-0.079,0.005C135.031,117.788,134.715,117.512,134.677,117.141
	 M54.934,118.18c-0.351-0.063-0.601-0.371-0.605-0.718c0-0.042,0.004-0.088,0.012-0.129c0.071-0.396,0.447-0.663,0.843-0.593
	c0.354,0.059,0.604,0.367,0.604,0.714c0.005,0.041,0,0.088-0.008,0.129c-0.062,0.354-0.371,0.604-0.717,0.604
	C55.021,118.188,54.979,118.184,54.934,118.18 M131.796,117.6c-0.01-0.046-0.014-0.088-0.014-0.129
	c0.004-0.346,0.25-0.655,0.605-0.718c0.396-0.071,0.774,0.196,0.846,0.592c0.009,0.046,0.009,0.088,0.009,0.13
	c0,0.346-0.251,0.655-0.601,0.717c-0.042,0.01-0.088,0.014-0.129,0.014C132.167,118.205,131.857,117.954,131.796,117.6
	 M57.757,118.751c-0.338-0.075-0.567-0.38-0.567-0.709c0-0.055,0.008-0.113,0.021-0.167c0.091-0.393,0.483-0.635,0.876-0.542
	c0.337,0.075,0.567,0.38,0.567,0.709c-0.004,0.054-0.008,0.108-0.021,0.167c-0.079,0.338-0.379,0.563-0.713,0.563
	C57.866,118.771,57.812,118.768,57.757,118.751 M128.946,118.225c-0.013-0.054-0.021-0.107-0.021-0.162
	c0-0.334,0.226-0.634,0.563-0.713c0.393-0.092,0.788,0.15,0.88,0.542c0.013,0.054,0.017,0.113,0.017,0.167
	c0.005,0.329-0.226,0.634-0.563,0.709v0.004c-0.055,0.013-0.112,0.018-0.168,0.018C129.325,118.789,129.025,118.563,128.946,118.225
	 M60.548,119.48c-0.322-0.092-0.53-0.388-0.53-0.705c0-0.066,0.008-0.134,0.029-0.201c0.108-0.383,0.513-0.607,0.901-0.494
	c0.321,0.091,0.529,0.383,0.529,0.699c0,0.067-0.008,0.135-0.029,0.2c-0.091,0.322-0.383,0.53-0.7,0.53
	C60.681,119.51,60.614,119.502,60.548,119.48 M126.135,119.006c-0.021-0.067-0.029-0.138-0.029-0.2
	c-0.004-0.322,0.205-0.614,0.525-0.706c0.389-0.112,0.793,0.109,0.905,0.497c0.017,0.066,0.029,0.133,0.029,0.2
	c0,0.316-0.209,0.613-0.53,0.705c-0.065,0.021-0.133,0.028-0.199,0.028C126.519,119.53,126.227,119.321,126.135,119.006
	 M63.305,120.344c-0.305-0.104-0.501-0.387-0.501-0.692c0-0.074,0.013-0.153,0.038-0.232c0.129-0.384,0.542-0.589,0.925-0.459
	c0.305,0.1,0.497,0.384,0.497,0.687c0,0.08-0.012,0.159-0.038,0.235c-0.1,0.304-0.388,0.5-0.692,0.5
	C63.458,120.382,63.379,120.369,63.305,120.344 M123.357,119.905c-0.024-0.078-0.038-0.153-0.038-0.232
	c0-0.305,0.192-0.588,0.496-0.693c0.384-0.129,0.797,0.08,0.926,0.459c0.025,0.08,0.038,0.159,0.038,0.234
	c0,0.304-0.191,0.587-0.497,0.691c-0.074,0.025-0.153,0.038-0.232,0.038C123.744,120.402,123.462,120.211,123.357,119.905
	 M66.027,121.315c-0.291-0.111-0.475-0.396-0.471-0.691c0-0.084,0.016-0.167,0.046-0.251c0.142-0.375,0.563-0.567,0.943-0.426
	c0.291,0.109,0.475,0.393,0.471,0.688c0,0.084-0.017,0.171-0.046,0.25c-0.109,0.292-0.388,0.476-0.684,0.476
	C66.203,121.361,66.116,121.346,66.027,121.315 M120.622,120.911c-0.034-0.078-0.052-0.166-0.052-0.25
	c-0.004-0.297,0.181-0.575,0.477-0.688c0.376-0.142,0.796,0.046,0.938,0.425c0.034,0.084,0.046,0.168,0.046,0.251
	c0.004,0.296-0.175,0.58-0.471,0.688c-0.083,0.034-0.171,0.05-0.259,0.05C121.01,121.387,120.729,121.208,120.622,120.911
	 M68.73,122.376c-0.284-0.113-0.45-0.384-0.454-0.668c0-0.097,0.016-0.192,0.053-0.284c0.151-0.375,0.576-0.555,0.952-0.4
	c0.279,0.117,0.45,0.385,0.454,0.668c0,0.096-0.017,0.192-0.054,0.283c-0.117,0.284-0.388,0.455-0.676,0.455
	C68.914,122.43,68.818,122.413,68.73,122.376 M117.91,122c-0.037-0.091-0.055-0.188-0.055-0.283
	c0.005-0.284,0.175-0.551,0.455-0.668c0.371-0.154,0.796,0.024,0.951,0.4c0.037,0.092,0.058,0.188,0.054,0.283
	c-0.005,0.284-0.171,0.552-0.455,0.668c-0.087,0.037-0.183,0.055-0.274,0.055C118.302,122.455,118.026,122.284,117.91,122
	 M71.409,123.502c-0.28-0.117-0.447-0.393-0.443-0.676c0-0.097,0.022-0.192,0.059-0.283c0.163-0.367,0.588-0.539,0.96-0.38
	c0.279,0.121,0.441,0.392,0.441,0.676c0,0.095-0.021,0.191-0.058,0.283c-0.121,0.274-0.392,0.441-0.672,0.441
	C71.601,123.563,71.5,123.543,71.409,123.502 M115.228,123.151c-0.041-0.097-0.062-0.191-0.062-0.284
	c0-0.287,0.161-0.559,0.441-0.676c0.371-0.162,0.801,0.008,0.959,0.38c0.038,0.092,0.06,0.188,0.06,0.283
	c0.004,0.284-0.163,0.556-0.438,0.676c-0.096,0.038-0.191,0.059-0.292,0.059C115.615,123.589,115.345,123.422,115.228,123.151
	 M74.074,124.674c-0.271-0.122-0.434-0.384-0.434-0.664c0-0.1,0.021-0.2,0.063-0.299c0.163-0.368,0.596-0.534,0.963-0.372
	c0.272,0.121,0.434,0.388,0.434,0.663c0,0.1-0.021,0.204-0.063,0.301c-0.12,0.275-0.388,0.433-0.667,0.433
	C74.27,124.735,74.168,124.716,74.074,124.674 M112.555,124.332c-0.042-0.101-0.063-0.2-0.063-0.302
	c0.006-0.278,0.163-0.542,0.435-0.662c0.372-0.163,0.801,0,0.964,0.37c0.045,0.097,0.066,0.201,0.062,0.302
	c0,0.274-0.162,0.542-0.434,0.663c-0.096,0.041-0.196,0.063-0.291,0.063C112.946,124.766,112.676,124.603,112.555,124.332
	 M76.739,125.862L76.739,125.862c-0.267-0.12-0.43-0.384-0.434-0.664c0-0.1,0.021-0.199,0.067-0.3
	c0.163-0.367,0.592-0.534,0.964-0.367c0.266,0.117,0.429,0.385,0.433,0.659c0,0.104-0.021,0.205-0.066,0.305
	c-0.121,0.271-0.388,0.43-0.668,0.43C76.935,125.925,76.834,125.908,76.739,125.862 M109.889,125.521
	c-0.041-0.101-0.063-0.2-0.063-0.301c0-0.279,0.163-0.542,0.435-0.663c0.367-0.167,0.8,0,0.963,0.371
	c0.042,0.096,0.063,0.2,0.063,0.3c0,0.276-0.162,0.542-0.434,0.663c-0.096,0.043-0.196,0.063-0.296,0.063
	C110.277,125.954,110.011,125.792,109.889,125.521 M79.425,127.038c-0.279-0.116-0.446-0.388-0.442-0.676
	c0-0.092,0.016-0.188,0.059-0.283c0.158-0.367,0.588-0.538,0.959-0.381c0.275,0.117,0.442,0.39,0.442,0.673
	c0,0.097-0.021,0.191-0.062,0.283c-0.117,0.279-0.389,0.442-0.668,0.442C79.617,127.097,79.517,127.08,79.425,127.038
	 M107.212,126.684c-0.037-0.096-0.059-0.191-0.059-0.288c0-0.283,0.162-0.554,0.442-0.671c0.371-0.159,0.801,0.012,0.959,0.384
	c0.038,0.091,0.058,0.188,0.058,0.283c0,0.284-0.166,0.555-0.441,0.672c-0.097,0.041-0.192,0.059-0.288,0.059
	C107.6,127.122,107.333,126.959,107.212,126.684 M82.145,128.165L82.145,128.165c-0.288-0.117-0.464-0.389-0.464-0.681
	c0-0.092,0.017-0.179,0.051-0.267c0.146-0.376,0.571-0.563,0.947-0.413c0.287,0.112,0.463,0.388,0.463,0.676
	c0,0.091-0.017,0.184-0.051,0.271c-0.112,0.287-0.387,0.463-0.679,0.463C82.32,128.215,82.231,128.197,82.145,128.165
	 M104.505,127.772c-0.034-0.088-0.05-0.18-0.05-0.268c0-0.291,0.175-0.566,0.463-0.679c0.376-0.146,0.797,0.036,0.945,0.412
	c0.034,0.089,0.052,0.18,0.052,0.267c0,0.293-0.177,0.567-0.464,0.68h-0.004c-0.088,0.034-0.176,0.051-0.263,0.051
	C104.893,128.235,104.617,128.06,104.505,127.772 M84.927,129.174L84.927,129.174c-0.305-0.101-0.501-0.384-0.501-0.688
	c-0.004-0.074,0.009-0.153,0.034-0.233c0.124-0.383,0.538-0.592,0.921-0.462c0.305,0.1,0.501,0.379,0.505,0.684
	c0,0.079-0.013,0.158-0.038,0.233c-0.099,0.309-0.388,0.504-0.696,0.504C85.077,129.211,85.001,129.198,84.927,129.174
	 M101.743,128.728c-0.024-0.08-0.037-0.159-0.033-0.233c0-0.305,0.196-0.589,0.501-0.688c0.383-0.126,0.797,0.083,0.922,0.466
	c0.024,0.08,0.037,0.159,0.037,0.234c-0.004,0.304-0.2,0.588-0.505,0.688c-0.075,0.025-0.149,0.038-0.226,0.038
	C102.132,129.232,101.844,129.036,101.743,128.728 M87.813,129.975L87.813,129.975c-0.346-0.075-0.58-0.384-0.576-0.722
	c0-0.05,0.005-0.095,0.017-0.146c0.083-0.396,0.471-0.646,0.868-0.558c0.341,0.071,0.58,0.379,0.575,0.717
	c0,0.05-0.008,0.1-0.016,0.15c-0.075,0.342-0.376,0.574-0.714,0.574C87.917,129.99,87.863,129.982,87.813,129.975 M98.911,129.425
	c-0.013-0.051-0.017-0.097-0.017-0.147c-0.004-0.337,0.234-0.646,0.576-0.717c0.396-0.087,0.784,0.167,0.867,0.563
	c0.013,0.046,0.017,0.096,0.017,0.146c0.004,0.338-0.232,0.643-0.58,0.717c-0.05,0.014-0.1,0.018-0.149,0.018
	C99.286,130.004,98.982,129.767,98.911,129.425 M90.77,130.441c-0.375-0.038-0.655-0.357-0.651-0.726c0-0.024,0-0.049,0.005-0.075
	c0.041-0.4,0.4-0.692,0.801-0.65c0.374,0.041,0.654,0.358,0.654,0.73c0,0.025-0.004,0.05-0.004,0.074
	c-0.041,0.376-0.359,0.65-0.726,0.65C90.824,130.445,90.799,130.445,90.77,130.441 M96.017,129.799
	c-0.004-0.024-0.004-0.049-0.004-0.075c-0.004-0.37,0.274-0.688,0.654-0.725c0.4-0.041,0.76,0.25,0.801,0.65
	c0,0.025,0.005,0.05,0.005,0.074c0,0.368-0.28,0.685-0.655,0.726c-0.024,0.005-0.05,0.005-0.075,0.005
	C96.372,130.454,96.054,130.175,96.017,129.799 M93.786,130.604h-0.025c-0.405-0.005-0.73-0.329-0.726-0.734
	c0-0.4,0.325-0.729,0.73-0.726h0.029h0.034c0.404,0,0.73,0.325,0.73,0.73c0,0.4-0.326,0.729-0.73,0.729H93.786z"/>
<path class="st2" d="M66.91,39.773c-0.045-0.533,0.073-1.272,0.266-1.716c0.088-0.074,0.236-0.074,0.311,0.03
	c0.103,1.287,0.709,2.263,2.188,2.263c0.946,0,2.159-0.607,2.159-2.086c0-1.095-0.695-1.7-1.479-2.322
	c-0.768-0.621-1.538-1.509-1.538-2.574c0-1.612,1.272-2.795,3.239-2.795c0.962,0,1.819,0.371,2.145,0.592
	c-0.207,0.37-0.399,1.198-0.548,1.716c-0.103,0.088-0.31,0.073-0.399-0.015c0.207-1.006-0.074-1.834-1.39-1.834
	c-1.346,0-1.996,0.872-1.996,1.893c0,0.991,0.903,1.715,1.434,2.13c0.902,0.694,1.598,1.479,1.598,2.691
	c0,1.761-1.347,3.062-3.402,3.062C68.433,40.808,67.412,40.482,66.91,39.773 M77.804,30.085c-0.295,0.828-0.768,2.175-1.064,3.018
	l-1.523,4.422l0.029,0.029c1.036-1.464,1.805-2.055,2.337-2.44c0.533-0.384,1.006-0.577,1.405-0.577
	c0.651,0,0.887,0.473,0.887,0.991c0,1.021-0.62,2.515-1.153,3.462c-0.28,0.502-0.577,0.827-0.961,1.212
	c-0.488,0.488-0.888,0.577-1.08,0.577c-0.488,0-0.548-0.311-0.548-0.429c0-0.252,0.209-0.474,0.4-0.474
	c0.06,0,0.133,0.03,0.207,0.089c0.119,0.089,0.281,0.192,0.385,0.192c0.221,0,0.369-0.221,0.591-0.739
	c0.4-0.961,1.065-3.003,1.065-3.816c0-0.281-0.103-0.444-0.31-0.444c-0.208,0-0.518,0.177-0.799,0.399
	c-0.621,0.474-1.11,0.962-1.878,1.968c-0.666,0.887-1.406,2.322-1.79,3.076c-0.059,0.119-0.134,0.178-0.266,0.178
	c-0.163,0-0.547-0.045-0.429-0.385l2.81-8.312c0.325-0.976,0.399-1.183,0.163-1.345l-0.312-0.208
	c-0.029-0.074-0.029-0.133,0.046-0.193c0.236-0.103,1.212-0.31,1.73-0.339L77.804,30.085z M85.122,36.401
	c-0.045,0.813-0.473,2.233-1.568,3.357c-0.917,0.947-1.716,1.021-2.115,1.021c-0.946,0-1.567-0.696-1.479-1.968
	c0.059-0.917,0.606-2.351,1.612-3.312c0.769-0.74,1.435-0.962,2.041-0.962C84.663,34.537,85.18,35.321,85.122,36.401 M82.43,35.691
	c-0.858,1.153-1.435,2.913-1.479,3.697c-0.029,0.518,0.177,0.947,0.606,0.947c0.325,0,0.695-0.133,1.168-0.769
	c0.651-0.873,1.347-2.825,1.376-3.61c0.015-0.457-0.074-0.975-0.592-0.975C83.214,34.981,82.859,35.114,82.43,35.691 M87.156,35.942
	c0.133-0.34,0.163-0.547-0.044-0.547c-0.296,0-0.917,0.503-1.362,1.035c-0.132,0-0.235-0.133-0.221-0.252
	c0.459-0.664,1.421-1.641,2.337-1.641c0.341,0,0.651,0.429,0.444,0.977l-1.169,3.09c-0.207,0.533-0.281,0.843-0.281,1.05
	c0,0.179,0.074,0.355,0.325,0.355c0.666,0,1.805-1.464,2.323-2.248c0.577-0.873,0.887-2.012,0.961-2.366
	c0.104-0.489,0.429-0.799,0.695-0.799c0.355,0,0.444,0.282,0.444,0.414c0,0.311-0.163,0.592-0.517,1.332
	c-0.533,1.094-0.799,2.218-0.799,3.017c0,0.443,0.191,0.65,0.546,0.65c0.445,0,1.228-0.547,1.836-1.42
	c0.576-0.828,0.916-1.73,0.916-2.47c0-0.355-0.03-0.709-0.133-1.05c0.029-0.31,0.266-0.532,0.548-0.532
	c0.472,0,0.575,0.547,0.575,0.917c0,0.828-0.472,2.145-1.611,3.52c-1.065,1.287-2.234,1.805-2.825,1.805
	c-0.311,0-0.829-0.385-0.829-0.843c0-0.4,0.134-0.873,0.252-1.258c0.073-0.236-0.03-0.221-0.207,0.015
	c-0.695,0.946-1.923,2.086-2.811,2.086c-0.414,0-0.753-0.444-0.753-0.799c0-0.281,0.104-0.666,0.251-1.08L87.156,35.942z
	 M103.479,35.483c0.074,0.37,0.148,0.37,0.444,0.016l1.818-2.189c0.593-0.725,1.421-1.731,1.421-1.864
	c0-0.104-0.074-0.192-0.43-0.252l-0.369-0.059c-0.104-0.088-0.09-0.295,0.029-0.37c0.577,0.03,1.035,0.045,1.538,0.045
	c0.459,0,0.843-0.015,1.331-0.045c0.103,0.06,0.103,0.282,0,0.37l-0.311,0.059c-0.354,0.074-0.62,0.148-0.828,0.341
	c-0.295,0.266-0.991,0.99-1.449,1.523l-1.687,1.982c-1.006,1.168-1.153,1.345-1.523,2.514l-0.281,0.888
	c-0.473,1.479-0.473,1.701,0.281,1.76l0.533,0.044c0.103,0.075,0.058,0.325-0.046,0.37c-0.827-0.03-1.346-0.045-1.98-0.045
	c-0.607,0-1.095,0.015-1.76,0.045c-0.119-0.074-0.119-0.295-0.017-0.37l0.533-0.044c0.711-0.059,0.828-0.266,1.332-1.76l0.295-0.873
	c0.251-0.739,0.312-1.005,0.104-1.893l-0.74-3.21c-0.207-0.917-0.311-1.183-0.843-1.272l-0.37-0.059
	c-0.088-0.103-0.044-0.31,0.046-0.37c0.546,0.03,0.93,0.045,1.565,0.045c0.651,0,1.11-0.015,1.584-0.045
	c0.088,0.075,0.104,0.282,0,0.37l-0.43,0.059c-0.547,0.074-0.68,0.222-0.547,0.814L103.479,35.483z M110.629,36.401
	c-0.044,0.813-0.474,2.233-1.568,3.357c-0.917,0.947-1.715,1.021-2.114,1.021c-0.946,0-1.567-0.696-1.479-1.968
	c0.059-0.917,0.605-2.351,1.612-3.312c0.769-0.74,1.434-0.962,2.04-0.962C110.17,34.537,110.688,35.321,110.629,36.401
	 M107.937,35.691c-0.856,1.153-1.433,2.913-1.479,3.697c-0.029,0.518,0.178,0.947,0.606,0.947c0.326,0,0.695-0.133,1.168-0.769
	c0.651-0.873,1.347-2.825,1.376-3.61c0.015-0.457-0.073-0.975-0.592-0.975C108.721,34.981,108.365,35.114,107.937,35.691
	 M112.398,39.3c-0.134,0.354-0.06,0.502,0.104,0.502c0.222,0,0.813-0.473,1.582-1.227c1.346-1.331,2.114-3.047,2.604-3.949
	c0.311-0.059,0.665,0.088,0.725,0.266c-0.148,0.4-1.109,2.825-1.73,4.585c-0.075,0.192-0.089,0.37,0.059,0.37
	c0.281,0,1.065-0.695,1.449-1.154c0.134-0.029,0.252,0.03,0.267,0.207c-0.385,0.71-1.804,1.879-2.589,1.879
	c-0.235,0-0.457-0.281-0.368-0.518l1.005-2.707l-0.029-0.015c-1.064,1.347-2.9,3.24-3.698,3.24c-0.606,0-0.681-0.607-0.428-1.258
	l1.36-3.593c0.103-0.282,0.117-0.429,0-0.429c-0.281,0-1.051,0.651-1.406,1.02c-0.147,0.03-0.266-0.089-0.251-0.222
	c0.384-0.591,1.863-1.76,2.56-1.76c0.19,0,0.531,0.193,0.443,0.444L112.398,39.3z M120.196,35.942l-0.635,1.864h0.073
	c0.444-0.828,1.169-2.012,1.553-2.499c0.34-0.444,0.711-0.77,1.08-0.77c0.519,0,0.591,0.503,0.591,0.725
	c0,0.221-0.133,0.65-0.31,0.888c-0.177,0.221-0.414,0.235-0.473-0.075c-0.074-0.384-0.163-0.576-0.312-0.576
	c-0.132,0-0.295,0.147-0.518,0.443c-0.902,1.154-1.73,2.958-2.516,4.659c-0.059,0.119-0.132,0.178-0.249,0.178
	c-0.164,0-0.593-0.059-0.49-0.385c0.193-0.592,1.125-3.209,1.524-4.659c0.045-0.162,0.016-0.31-0.118-0.31
	c-0.385,0-0.784,0.413-1.05,0.769c-0.149,0.029-0.252-0.059-0.238-0.238c0.475-0.798,1.036-1.419,1.746-1.419
	C120.597,34.537,120.33,35.542,120.196,35.942"/>
<path class="st2" d="M120.208,68.935v36.963h21.731v-7.739h-12.788v-7.492h10.066v-7.723h-10.066v-6.271h11.963v-7.739H120.208z
	 M96.77,76.674c7.195,0,12.822,4.026,12.822,10.742c0,5.924-4.638,10.743-10.908,10.743h-3.152V76.674H96.77z M98.502,105.898
	c11.815,0,20.017-8.284,20.017-18.482c0-11.567-9.918-18.481-21.931-18.481h-9.983v36.963H98.502z M72.858,105.898h8.927V68.934
	h-8.927V105.898z M69.458,73.918c-3.432-3.68-6.832-5.512-10.528-5.512c-6.518,0-11.238,4.01-11.238,9.356
	c0,10.742,13.73,12.112,13.73,18.366c0,1.964-1.914,3.152-3.482,3.152c-2.475,0-4.439-1.551-6.122-4.125l-6.502,3.745
	c2.855,4.588,6.964,7.524,12.426,7.524c8.02,0,12.64-4.505,12.64-10.841c0-10.297-13.828-12.723-13.828-17.674
	c0-1.683,1.369-2.376,2.607-2.376c1.502,0,2.954,0.891,4.752,2.838L69.458,73.918z"/>
<path class="st2" d="M137.373,55.852l6.805-10.927h-5.617l-3.627,5.833l-3.654-5.833h-5.617l6.842,10.927v9.235h4.869V55.852z
	 M113.193,44.924v20.162h11.854v-4.221h-6.976v-4.087h5.49v-4.212h-5.49v-3.421h6.525v-4.221H113.193z M104.987,55.68L91.136,44.348
	v20.738h4.869V54.313l13.853,11.35V44.924h-4.87V55.68z M88.09,47.642c-1.872-2.007-3.726-3.006-5.742-3.006
	c-3.556,0-6.13,2.187-6.13,5.103c0,5.86,7.489,6.607,7.489,10.018c0,1.072-1.044,1.72-1.899,1.72c-1.351,0-2.422-0.846-3.34-2.251
	l-3.546,2.044c1.557,2.502,3.798,4.104,6.778,4.104c4.374,0,6.894-2.457,6.894-5.914c0-5.616-7.542-6.939-7.542-9.64
	c0-0.918,0.747-1.296,1.422-1.296c0.819,0,1.611,0.486,2.592,1.549L88.09,47.642z M68.005,65.086h4.869V44.924h-4.869V65.086z
	 M54.013,49.146c3.924,0,6.994,2.197,6.994,5.86c0,3.231-2.53,5.86-5.95,5.86h-1.719v-11.72H54.013z M54.958,65.086
	c6.445,0,10.918-4.518,10.918-10.081c0-6.31-5.409-10.081-11.962-10.081h-5.446v20.162H54.958z"/>
<g>
</g>
<g>
</g>
<g>
</g>
<g>
</g>
<g>
</g>
<g>
</g>
<g>
</g>
<g>
</g>
<g>
</g>
<g>
</g>
<g>
</g>
<g>
</g>
<g>
</g>
<g>
</g>
<g>
</g>
</svg>
